<svg width="16" height="16" viewBox="0 0 16 16" fill="none" xmlns="http://www.w3.org/2000/svg">
<path d="M2 11.0002H4.82996C4.9634 11.0002 5.13411 10.9922 5.16773 10.8631L6 7.37061L3 7.49951L2 11.0002Z" fill="url(#paint0_linear_2439_1968)"/>
<path d="M5 3.16667C5 2.52233 5.44772 2 6 2H10C10.5523 2 11 2.52233 11 3.16667V7.83333C11 8.47767 10.5523 9 10 9H6C5.44772 9 5 8.47767 5 7.83333V3.16667Z" fill="url(#paint1_linear_2439_1968)"/>
<path d="M7.14681 6.67908C8.79494 6.67908 10.131 4.72876 10.131 2.32292C10.131 2.21712 10.1284 2.11221 10.1234 2.0083C10.6174 2.06908 11 2.49023 11 3.00072V7.00055C11 7.55281 10.5523 8.00051 10 8.00051H6C5.44772 8.00051 5 7.55281 5 7.00055V5.34875C5.54267 6.16899 6.30393 6.67908 7.14681 6.67908Z" fill="#A252D2"/>
<path d="M2.75907 5.5612C2.68832 5.05776 3.03908 4.59228 3.54253 4.52152L7.1888 4.00907C7.69224 3.93832 8.15772 4.28908 8.22848 4.79253L8.74093 8.4388C8.81168 8.94224 8.46092 9.40772 7.95747 9.47848L4.3112 9.99093C3.80776 10.0617 3.34228 9.71092 3.27152 9.20747L2.75907 5.5612Z" fill="url(#paint2_linear_2439_1968)"/>
<path d="M5.97046 9.75774C6.59459 8.57591 7.00023 6.66112 7.00023 4.5C7.00023 4.34414 6.99812 4.18957 6.99397 4.03646L7.18881 4.00907C7.69226 3.93832 8.15774 4.28908 8.22849 4.79253L8.74094 8.4388C8.8117 8.94224 8.46093 9.40772 7.95749 9.47848L5.97046 9.75774Z" fill="#05919F"/>
<path d="M7.61938 5.89031C7.65625 5.36305 8.11358 4.9655 8.64085 5.00237L12.4597 5.26941C12.9869 5.30628 13.3845 5.7636 13.3476 6.29087L13.0806 10.1097C13.0437 10.637 12.5864 11.0345 12.0591 10.9976L8.24029 10.7306C7.71302 10.6937 7.31548 10.2364 7.35235 9.70913L7.61938 5.89031Z" fill="url(#paint3_linear_2439_1968)"/>
<path d="M12.4599 5.26904C12.395 7.94311 11.1159 10.1676 9.40015 10.8113L12.0633 10.9975C12.5905 11.0344 13.0479 10.6369 13.0847 10.1096L13.3518 6.29078C13.3886 5.76351 12.9911 5.30619 12.4638 5.26931L12.4599 5.26904Z" fill="#D38F00"/>
<path d="M3 7.5L11 7V14L3.22148 13.5746C3.09711 13.5678 3 13.4721 3 13.3562V7.5Z" fill="url(#paint4_linear_2439_1968)"/>
<path d="M11 7L13 8V12.9769C13 13.0663 12.9502 13.1468 12.8743 13.18L11 14V7Z" fill="url(#paint5_linear_2439_1968)"/>
<path d="M6.99988 8C6.22644 8 5.99988 8 5.99988 8.5V11.0001H4.99988L6.99995 13.0001L8.99988 11.0001H7.99988C7.99988 11.0001 7.99988 9.47634 7.99988 8.5C7.99988 8 7.84363 8 6.99988 8Z" fill="#102A4C"/>
<path d="M12.1875 11.9191C12.2082 12.0145 12.3412 11.9874 12.4356 11.9625L14 11.5494L13 8L11 7L12.1875 11.9191Z" fill="url(#paint6_linear_2439_1968)"/>
<defs>
<linearGradient id="paint0_linear_2439_1968" x1="2.0127" y1="10.9995" x2="5.09541" y2="6.70887" gradientUnits="userSpaceOnUse">
<stop stop-color="#48658B"/>
<stop offset="1" stop-color="#6582AA"/>
</linearGradient>
<linearGradient id="paint1_linear_2439_1968" x1="5" y1="9" x2="12.015" y2="3.23508" gradientUnits="userSpaceOnUse">
<stop stop-color="#AE46DE"/>
<stop offset="1" stop-color="#CC66FF"/>
</linearGradient>
<linearGradient id="paint2_linear_2439_1968" x1="3.78163" y1="9.97949" x2="7.87554" y2="4.08225" gradientUnits="userSpaceOnUse">
<stop stop-color="#05919F"/>
<stop offset="1" stop-color="#49BAC8"/>
</linearGradient>
<linearGradient id="paint3_linear_2439_1968" x1="7.34998" y1="11" x2="13.4736" y2="5.1289" gradientUnits="userSpaceOnUse">
<stop stop-color="#D38F00"/>
<stop offset="1" stop-color="#FFAD00"/>
</linearGradient>
<linearGradient id="paint4_linear_2439_1968" x1="3" y1="13.5898" x2="10.4834" y2="6.4579" gradientUnits="userSpaceOnUse">
<stop stop-color="#6582AA"/>
<stop offset="1" stop-color="#A1C0EB"/>
</linearGradient>
<linearGradient id="paint5_linear_2439_1968" x1="11" y1="14" x2="13.3414" y2="7.95249" gradientUnits="userSpaceOnUse">
<stop stop-color="#48658B"/>
<stop offset="1" stop-color="#6582AA"/>
</linearGradient>
<linearGradient id="paint6_linear_2439_1968" x1="14" y1="13.3692" x2="11.9813" y2="6.81166" gradientUnits="userSpaceOnUse">
<stop stop-color="#6582AA"/>
<stop offset="1" stop-color="#A1C0EB"/>
</linearGradient>
</defs>
</svg>
