<svg width="16" height="16" viewBox="0 0 16 16" fill="none" xmlns="http://www.w3.org/2000/svg">
<path d="M2.96997 2C1.86197 2 0.969971 2.892 0.969971 4V9C0.969971 10.108 1.86197 11 2.96997 11H12.97C14.078 11 14.97 10.108 14.97 9V4C14.97 2.892 14.078 2 12.97 2H7.20797H2.96997ZM2.96997 3H12.97C13.524 3 13.97 3.446 13.97 4V9C13.97 9.554 13.524 10 12.97 10H2.96997C2.41597 10 1.96997 9.554 1.96997 9V4C1.96997 3.446 2.41597 3 2.96997 3Z" fill="#232323"/>
<path d="M11.97 11L9.96997 13L7.96997 11H11.97Z" fill="#232323"/>
<path d="M3.96997 5H11.97V6H3.96997V5Z" fill="#232323"/>
<path d="M3.96997 7H11.97V8H3.96997V7Z" fill="#232323"/>
</svg>
