<svg width="16" height="16" viewBox="0 0 16 16" fill="none" xmlns="http://www.w3.org/2000/svg">
<path fill-rule="evenodd" clip-rule="evenodd" d="M3.00195 0C2.44967 0 2.00195 0.447715 2.00195 1V15C2.00195 15.5523 2.44967 16 3.00195 16H13.002C13.5542 16 14.002 15.5523 14.002 15V1C14.002 0.447715 13.5542 0 13.002 0H3.00195ZM4.60195 2C4.27058 2 4.00195 2.26863 4.00195 2.6V4.4C4.00195 4.73137 4.27058 5 4.60195 5H11.402C11.7333 5 12.002 4.73137 12.002 4.4V2.6C12.002 2.26863 11.7333 2 11.402 2H4.60195ZM12.002 7C12.002 7.55228 11.5542 8 11.002 8C10.4497 8 10.002 7.55228 10.002 7C10.002 6.44772 10.4497 6 11.002 6C11.5542 6 12.002 6.44772 12.002 7ZM8.00195 8C8.55424 8 9.00195 7.55228 9.00195 7C9.00195 6.44772 8.55424 6 8.00195 6C7.44967 6 7.00195 6.44772 7.00195 7C7.00195 7.55228 7.44967 8 8.00195 8ZM9.00195 10C9.00195 10.5523 8.55424 11 8.00195 11C7.44967 11 7.00195 10.5523 7.00195 10C7.00195 9.44771 7.44967 9 8.00195 9C8.55424 9 9.00195 9.44771 9.00195 10ZM8.00195 14C8.55424 14 9.00195 13.5523 9.00195 13C9.00195 12.4477 8.55424 12 8.00195 12C7.44967 12 7.00195 12.4477 7.00195 13C7.00195 13.5523 7.44967 14 8.00195 14ZM6.00195 7C6.00195 7.55228 5.55424 8 5.00195 8C4.44967 8 4.00195 7.55228 4.00195 7C4.00195 6.44772 4.44967 6 5.00195 6C5.55424 6 6.00195 6.44772 6.00195 7ZM5.00195 11C5.55424 11 6.00195 10.5523 6.00195 10C6.00195 9.44771 5.55424 9 5.00195 9C4.44967 9 4.00195 9.44771 4.00195 10C4.00195 10.5523 4.44967 11 5.00195 11ZM6.00195 13C6.00195 13.5523 5.55424 14 5.00195 14C4.44967 14 4.00195 13.5523 4.00195 13C4.00195 12.4477 4.44967 12 5.00195 12C5.55424 12 6.00195 12.4477 6.00195 13ZM11.002 9C10.4497 9 10.002 9.44771 10.002 10V13C10.002 13.5523 10.4497 14 11.002 14C11.5542 14 12.002 13.5523 12.002 13V10C12.002 9.44772 11.5542 9 11.002 9Z" fill="#232323"/>
</svg>
