<svg width="16" height="16" viewBox="0 0 16 16" fill="none" xmlns="http://www.w3.org/2000/svg">
<g clip-path="url(#clip0_2146_459)">
<path d="M2.00201 0.00201947C1.67436 0.00126388 1.35154 0.0811432 1.06204 0.234609C0.77255 0.388075 0.525281 0.610418 0.342011 0.882024V0.885015C0.118786 1.21547 -0.000343985 1.60523 7.46059e-07 2.00402V8.00202L0.00201491 8.02202V14.004C0.00201491 15.112 0.894015 16.004 2.00201 16.004C3.11001 16.004 4.00202 15.112 4.00202 14.004V10.004H12.002V14.004C12.002 15.112 12.894 16.004 14.002 16.004C15.11 16.004 16.002 15.112 16.002 14.004V2.00402C16.002 1.60467 15.8829 1.21439 15.66 0.883016C15.4768 0.611284 15.2296 0.388853 14.9401 0.235372C14.6505 0.0818908 14.3277 0.00209573 14 0.00302655L2.00201 0.00201947ZM3.50201 2.00402H4.50202C4.77902 2.00402 5.00202 2.22702 5.00202 2.50402V4.00402H6.50202C6.77902 4.00402 7.00202 4.22702 7.00202 4.50402V5.50402C7.00202 5.78102 6.77902 6.00402 6.50202 6.00402H5.00202V7.50402C5.00202 7.78102 4.77902 8.00402 4.50202 8.00402H3.50201C3.43632 8.00415 3.37124 7.9913 3.31052 7.96622C3.24979 7.94114 3.19462 7.90433 3.14816 7.85787C3.10171 7.81141 3.06488 7.75624 3.0398 7.69552C3.01471 7.63479 3.00188 7.56972 3.00201 7.50402V6.00402H1.50201C1.43632 6.00415 1.37124 5.9913 1.31052 5.96622C1.24979 5.94114 1.19462 5.90433 1.14816 5.85787C1.10171 5.81141 1.06488 5.75624 1.0398 5.69552C1.01471 5.63479 1.00188 5.56972 1.00201 5.50402V4.50402C1.00201 4.22702 1.22501 4.00402 1.50201 4.00402H3.00201V2.50402C3.00201 2.22702 3.22501 2.00402 3.50201 2.00402ZM11.502 2.00402H12.502C12.779 2.00402 13.002 2.22702 13.002 2.50402V3.50402C13.002 3.78102 12.779 4.00402 12.502 4.00402H11.502C11.4363 4.00415 11.3712 3.9913 11.3105 3.96622C11.2498 3.94114 11.1946 3.90433 11.1481 3.85787C11.1017 3.81141 11.0649 3.75624 11.0398 3.69552C11.0147 3.63479 11.0019 3.56972 11.002 3.50402V2.50402C11.002 2.22702 11.225 2.00402 11.502 2.00402ZM9.50202 4.00402H10.502C10.779 4.00402 11.002 4.22702 11.002 4.50402V5.50402C11.002 5.78102 10.779 6.00402 10.502 6.00402H9.50202C9.43632 6.00415 9.37124 5.9913 9.31052 5.96622C9.24979 5.94114 9.19462 5.90433 9.14816 5.85787C9.10171 5.81141 9.06488 5.75624 9.0398 5.69552C9.01472 5.63479 9.00188 5.56972 9.00202 5.50402V4.50402C9.00202 4.22702 9.22501 4.00402 9.50202 4.00402ZM13.502 4.00402H14.502C14.779 4.00402 15.002 4.22702 15.002 4.50402V5.50402C15.002 5.78102 14.779 6.00402 14.502 6.00402H13.502C13.4363 6.00415 13.3712 5.9913 13.3105 5.96622C13.2498 5.94114 13.1946 5.90433 13.1481 5.85787C13.1017 5.81141 13.0649 5.75624 13.0398 5.69552C13.0147 5.63479 13.0019 5.56972 13.002 5.50402V4.50402C13.002 4.22702 13.225 4.00402 13.502 4.00402ZM11.502 6.00402H12.502C12.779 6.00402 13.002 6.22702 13.002 6.50402V7.50402C13.002 7.78102 12.779 8.00402 12.502 8.00402H11.502C11.4363 8.00415 11.3712 7.9913 11.3105 7.96622C11.2498 7.94114 11.1946 7.90433 11.1481 7.85787C11.1017 7.81141 11.0649 7.75624 11.0398 7.69552C11.0147 7.63479 11.0019 7.56972 11.002 7.50402V6.50402C11.002 6.22702 11.225 6.00402 11.502 6.00402Z" fill="#232323"/>
</g>
<defs>
<clipPath id="clip0_2146_459">
<rect width="16.002" height="16.002" fill="white"/>
</clipPath>
</defs>
</svg>
