<svg width="16" height="16" viewBox="0 0 16 16" fill="none" xmlns="http://www.w3.org/2000/svg">
<g clip-path="url(#clip0_585_10368)">
<path d="M14 0C15.1046 0 16 0.89543 16 2C16 3.10457 15.1046 4 14 4C13.7892 4 13.5863 3.96669 13.3955 3.90625L11.29 7.06348C11.7325 7.58614 12 8.26159 12 9C12 9.68987 11.7645 10.3233 11.373 10.8301L12.3359 12.1143C12.5438 12.041 12.7671 12 13 12C14.1046 12 15 12.8954 15 14C15 15.1046 14.1046 16 13 16C11.8954 16 11 15.1046 11 14C11 13.6412 11.0953 13.3048 11.2607 13.0137L10.2812 11.709C9.89227 11.8933 9.45903 12 9 12C7.78076 12 6.73294 11.272 6.26367 10.2275L3.9541 10.4199C3.76104 11.3227 2.96041 12 2 12C0.89543 12 0 11.1046 0 10C0 8.89543 0.89543 8 2 8C2.87369 8 3.61435 8.56098 3.88672 9.3418L6.00391 9.16602C6.00091 9.11107 6 9.05569 6 9C6 8.07436 6.41919 7.2466 7.07812 6.69629L6.38379 4.96094C6.25945 4.98513 6.13142 5 6 5C4.89543 5 4 4.10457 4 3C4 1.89543 4.89543 1 6 1C7.10457 1 8 1.89543 8 3C8 3.49604 7.81757 3.94832 7.51855 4.29785L8.23926 6.09961C8.48237 6.03602 8.73695 6 9 6C9.41655 6 9.81329 6.08485 10.1738 6.23828L12.2998 3.04883C12.1111 2.7436 12 2.3852 12 2C12 0.89543 12.8954 0 14 0Z" fill="#D4D4D4"/>
</g>
<defs>
<clipPath id="clip0_585_10368">
<rect width="16" height="16" fill="white"/>
</clipPath>
</defs>
</svg>
