<svg width="16" height="16" viewBox="0 0 16 16" fill="none" xmlns="http://www.w3.org/2000/svg">
<g clip-path="url(#clip0_2146_460)">
<path d="M2.00195 1C0.893953 1 0.00195312 1.892 0.00195312 3V13C0.00195312 14.108 0.893953 15 2.00195 15H14.002C15.11 15 16.002 14.108 16.002 13V3C16.002 1.892 15.11 1 14.002 1H2.00195ZM1.97095 3H13.971V13H1.97095V3Z" fill="#232323"/>
<path d="M5.0026 5.20081L8.00195 7.96552L5.0026 10.7302C4.29111 11.3855 3.67264 10.7015 4.19859 10.2172L6.64131 7.96552L4.19859 5.71426C3.79633 5.34353 4.41481 4.65954 5.0026 5.20081Z" fill="#232323"/>
<rect x="7.00195" y="10" width="5" height="1" rx="0.5" fill="#232323"/>
</g>
<defs>
<clipPath id="clip0_2146_460">
<rect width="16" height="16" fill="white" transform="translate(0.00195312)"/>
</clipPath>
</defs>
</svg>
