<svg width="16" height="16" viewBox="0 0 16 16" fill="none" xmlns="http://www.w3.org/2000/svg">
<g clip-path="url(#clip0_2146_462)">
<path d="M9.00195 8V12.281C8.69928 12.1007 8.35425 12.0037 8.00195 12C7.60639 12 7.21971 12.1173 6.89081 12.3371C6.56192 12.5568 6.30557 12.8692 6.15419 13.2346C6.00282 13.6001 5.96321 14.0022 6.04038 14.3902C6.11755 14.7781 6.30804 15.1345 6.58774 15.4142C6.86745 15.6939 7.22381 15.8844 7.61177 15.9616C7.99974 16.0387 8.40187 15.9991 8.76732 15.8478C9.13277 15.6964 9.44513 15.44 9.66489 15.1111C9.88466 14.7822 10.002 14.3956 10.002 14L10.005 10H14.005L14.002 12.281C13.6993 12.1007 13.3543 12.0037 13.002 12C12.6064 12 12.2197 12.1173 11.8908 12.3371C11.5619 12.5568 11.3056 12.8692 11.1542 13.2346C11.0028 13.6001 10.9632 14.0022 11.0404 14.3902C11.1176 14.7781 11.308 15.1345 11.5877 15.4142C11.8674 15.6939 12.2238 15.8844 12.6118 15.9616C12.9997 16.0387 13.4019 15.9991 13.7673 15.8478C14.1328 15.6964 14.4451 15.44 14.6649 15.1111C14.8847 14.7822 15.002 14.3956 15.002 14V8H10.002H9.00195Z" fill="#232323"/>
<path d="M1.00192 1V2H0.997925V14H1.00192V16H2.00192V15H3.00192V16H4.00192V14H3.99792L4.00192 13H5.00192L4.99792 11H3.99792V6H11.9979V7H14.9979V3H15.0019V1H14.0019V2H13.0019V1H12.0019V2H11.9979L12.0019 4H4.00192L3.99792 3H4.00192V1H3.00192V2H2.00192V1H1.00192ZM1.99792 3H2.99792V4H1.99792V3ZM12.9979 3H13.9979V4H12.9979V3ZM1.99792 5H2.99792V6H1.99792V5ZM12.9979 5H13.9979V6H12.9979V5ZM1.99792 7H2.99792V8H1.99792V7ZM1.99792 9H2.99792V10H1.99792V9ZM1.99792 11H2.99792V12H1.99792V11ZM1.99792 13H2.99792V14H1.99792V13Z" fill="#232323"/>
</g>
<defs>
<clipPath id="clip0_2146_462">
<rect width="16" height="16" fill="white" transform="translate(0.00195312)"/>
</clipPath>
</defs>
</svg>
