<svg width="16" height="16" viewBox="0 0 16 16" fill="none" xmlns="http://www.w3.org/2000/svg">
<path d="M10.002 0V6H12.502L8.00195 13L3.50195 6H6.00195V0H10.002Z" fill="#232323"/>
<path d="M3.00195 14C2.73674 14 2.48238 14.1054 2.29485 14.2929C2.10731 14.4804 2.00195 14.7348 2.00195 15C2.00195 15.2652 2.10731 15.5196 2.29485 15.7071C2.48238 15.8946 2.73674 16 3.00195 16H13.002C13.2672 16 13.5215 15.8946 13.7091 15.7071C13.8966 15.5196 14.002 15.2652 14.002 15C14.002 14.7348 13.8966 14.4804 13.7091 14.2929C13.5215 14.1054 13.2672 14 13.002 14H3.00195Z" fill="#232323"/>
</svg>
