<svg width="16" height="16" viewBox="0 0 16 16" fill="none" xmlns="http://www.w3.org/2000/svg">
<g clip-path="url(#clip0_2146_456)">
<path d="M1.00195 10C1.00195 10 2.50195 9.72548 4.50195 10C5.91028 10.1933 8.00195 11 8.00195 11V16C8.00195 16 5.91028 15.1933 4.50195 15C2.50195 14.7255 1.00195 15 1.00195 15V10Z" fill="#232323"/>
<path d="M8.00195 11C8.00195 11 10.0936 10.1933 11.502 10C13.502 9.72548 15.002 10 15.002 10V15C15.002 15 13.502 14.7255 11.502 15C10.0936 15.1933 8.00195 16 8.00195 16V11Z" fill="#232323"/>
<path d="M13.157 8.87875C12.3779 7.9198 10.8804 6.99856 8.00196 7C5.12584 7.00144 3.62839 7.92131 2.84875 8.87877C3.33529 8.88402 3.89562 8.91678 4.5019 9C5.91023 9.19331 8.0019 10 8.0019 10C8.0019 10 10.0936 9.1933 11.5019 9C12.109 8.91667 12.6701 8.88393 13.157 8.87875Z" fill="#232323"/>
<circle cx="8.00195" cy="3" r="3" fill="#232323"/>
</g>
<defs>
<clipPath id="clip0_2146_456">
<rect width="16" height="16" fill="white" transform="translate(0.00195312)"/>
</clipPath>
</defs>
</svg>
