<svg width="16" height="16" viewBox="0 0 16 16" fill="none" xmlns="http://www.w3.org/2000/svg">
<g clip-path="url(#clip0_2146_461)">
<path d="M7.89187 -1.03086e-05C5.78187 0.0299897 2.94686 0.802019 2.99486 3.28002C3.04486 5.86702 5.91187 4.94201 6.14487 5.99901C6.17987 5.95401 6.23287 5.91701 6.26987 5.87401C6.46687 5.66101 6.66486 5.48602 6.86286 5.28002C7.17486 4.92802 7.49887 4.60099 7.82987 4.24999C8.93587 3.07099 8.98386 2.99999 11.6259 0.99999C10.5909 0.37899 9.36786 0.0339897 8.32886 -1.03086e-05C8.19486 -0.00501031 8.03187 -0.00201031 7.89187 -1.03086e-05ZM5.98887 1.531C6.81587 1.531 7.48586 2.202 7.48586 3.031C7.49322 3.23219 7.45994 3.4328 7.38802 3.62084C7.3161 3.80888 7.20702 3.98048 7.06728 4.12542C6.92755 4.27035 6.76003 4.38567 6.57474 4.46441C6.38945 4.54315 6.19019 4.58373 5.98887 4.58373C5.78754 4.58373 5.58828 4.54315 5.40299 4.46441C5.2177 4.38567 5.05019 4.27035 4.91045 4.12542C4.77072 3.98048 4.66163 3.80888 4.58971 3.62084C4.51779 3.4328 4.48452 3.23219 4.49187 3.031C4.49187 2.203 5.16187 1.531 5.98887 1.531ZM13.2579 2.19298C11.8399 4.42598 10.8909 5.74902 9.88787 6.78002C9.24887 7.43802 8.72488 8.09196 8.26588 8.56096C7.42688 9.45096 6.32787 10.501 5.11587 11.654C5.17887 13.124 5.92587 14.401 8.35987 14.872C12.2579 15.628 16.3869 13.048 15.9709 7.812C15.7929 5.563 14.5659 3.53001 13.2579 2.19201V2.19298ZM13.5999 5.99901C13.8651 5.99901 14.1194 6.10432 14.307 6.29186C14.4945 6.4794 14.5999 6.7338 14.5999 6.99901C14.5999 7.26423 14.4945 7.51857 14.307 7.70611C14.1194 7.89364 13.8651 7.99901 13.5999 7.99901C13.3347 7.99901 13.0803 7.89364 12.8928 7.70611C12.7052 7.51857 12.5999 7.26423 12.5999 6.99901C12.5999 6.7338 12.7052 6.4794 12.8928 6.29186C13.0803 6.10432 13.3347 5.99901 13.5999 5.99901ZM12.9759 8.99901C13.2411 8.99901 13.4954 9.10432 13.683 9.29186C13.8705 9.4794 13.9759 9.7338 13.9759 9.99901C13.9759 10.2642 13.8705 10.5186 13.683 10.7061C13.4954 10.8936 13.2411 10.999 12.9759 10.999C12.7107 10.999 12.4563 10.8936 12.2688 10.7061C12.0812 10.5186 11.9759 10.2642 11.9759 9.99901C11.9759 9.7338 12.0812 9.4794 12.2688 9.29186C12.4563 9.10432 12.7107 8.99901 12.9759 8.99901ZM7.98586 10.999C8.24547 11.0072 8.49171 11.1161 8.67245 11.3027C8.85318 11.4892 8.95425 11.7387 8.95425 11.9985C8.95425 12.2582 8.85318 12.5078 8.67245 12.6943C8.49171 12.8809 8.24547 12.9898 7.98586 12.998C7.72064 12.998 7.46629 12.8926 7.27875 12.7051C7.09122 12.5175 6.98586 12.2632 6.98586 11.998C6.98586 11.7328 7.09122 11.4784 7.27875 11.2909C7.46629 11.1033 7.72064 10.998 7.98586 10.998V10.999ZM10.9799 10.999C11.2395 11.0072 11.4857 11.1161 11.6664 11.3027C11.8472 11.4892 11.9482 11.7387 11.9482 11.9985C11.9482 12.2582 11.8472 12.5078 11.6664 12.6943C11.4857 12.8809 11.2395 12.9898 10.9799 12.998C10.7146 12.998 10.4603 12.8926 10.2728 12.7051C10.0852 12.5175 9.97986 12.2632 9.97986 11.998C9.97986 11.7328 10.0852 11.4784 10.2728 11.2909C10.4603 11.1033 10.7146 10.998 10.9799 10.998V10.999Z" fill="#232323"/>
<path d="M0.00390625 13.5C1.55591 13.5 1.39791 11.712 2.15091 11.214C3.02391 10.637 3.7899 11.352 3.9429 11.94C4.1349 12.683 3.82591 13.572 2.81291 13.825C1.73891 14.093 0.150906 14.1011 0.00390625 13.4991V13.5Z" fill="#232323"/>
<path d="M14.0419 0C12.2419 1.299 9.83586 3.30201 7.92686 5.33301C7.75386 5.51801 7.58687 5.69598 7.42287 5.88098C7.31887 5.98798 7.21086 6.07599 7.10786 6.18799C7.04186 6.26499 6.98186 6.35098 6.91786 6.42798C5.04486 8.49798 3.19785 11.108 2.00085 13.06C4.97885 10.763 6.91686 8.89503 8.14786 7.59003C8.38786 7.34403 8.67686 7.02399 8.99786 6.66699C10.2019 5.33199 11.9239 3.229 14.0419 0Z" fill="#232323"/>
</g>
<defs>
<clipPath id="clip0_2146_461">
<rect width="16" height="16" fill="white" transform="translate(0.00195312)"/>
</clipPath>
</defs>
</svg>
