<svg width="32" height="32" viewBox="0 0 32 32" fill="none" xmlns="http://www.w3.org/2000/svg">
<path d="M4 23H9.65084C9.92357 23 10.2695 22.9781 10.3355 22.7134L12 15.4167L6 14L4 23Z" fill="url(#paint0_linear_2439_1966)"/>
<path d="M10 6C10 4.89543 10.8954 4 12 4H20C21.1046 4 22 4.89543 22 6V14C22 15.1046 21.1046 16 20 16H12C10.8954 16 10 15.1046 10 14V6Z" fill="url(#paint1_linear_2439_1966)"/>
<path d="M14 14.9557C17.866 14.9557 21 10.2782 21 4.50824C21 4.42781 20.9994 4.34758 20.9982 4.26758C21.597 4.61313 22 5.26003 22 6.00106V14.0011C22 15.1056 21.1046 16.0011 20 16.0011H12C10.8954 16.0011 10 15.1056 10 14.0011V13.0831C11.1338 14.2635 12.5128 14.9557 14 14.9557Z" fill="#A252D2"/>
<path d="M5.51815 10.1224C5.37664 9.11552 6.07817 8.18455 7.08506 8.04305L14.3776 7.01815C15.3845 6.87664 16.3154 7.57817 16.457 8.58506L17.4819 15.8776C17.6234 16.8845 16.9218 17.8154 15.9149 17.957L8.62241 18.9819C7.61552 19.1234 6.68455 18.4218 6.54305 17.4149L5.51815 10.1224Z" fill="url(#paint2_linear_2439_1966)"/>
<path d="M11.13 18.9999C13.007 16.9575 14.2934 12.7775 14.2934 7.95286C14.2934 7.6447 14.2882 7.33917 14.2779 7.03666L14.4016 7.01872C15.4085 6.87274 16.3395 7.59641 16.481 8.63507L17.5059 16.1577C17.6474 17.1964 16.9458 18.1567 15.939 18.3027L11.13 18.9999Z" fill="#05919F"/>
<path d="M14.5388 11.7806C14.6126 10.7261 15.5272 9.931 16.5817 10.0047L24.2194 10.5388C25.2739 10.6126 26.069 11.5272 25.9953 12.5817L25.4612 20.2194C25.3874 21.2739 24.4728 22.069 23.4183 21.9953L15.7806 21.4612C14.7261 21.3874 13.931 20.4728 14.0047 19.4183L14.5388 11.7806Z" fill="url(#paint3_linear_2439_1966)"/>
<path d="M18.6473 20.8483C21.9573 20.8483 24.6406 16.3499 24.6406 10.8007C24.6406 10.7388 24.6403 10.6769 24.6396 10.6152C25.4769 10.8674 26.0588 11.6724 25.9953 12.5814L25.4612 20.219C25.3874 21.2736 24.4728 22.0687 23.4183 21.9949L15.7806 21.4608C14.7261 21.3871 13.931 20.4724 14.0047 19.4179L14.1437 17.4306C15.2421 19.5259 16.8526 20.8483 18.6473 20.8483Z" fill="#D38F00"/>
<path d="M6 14L23 13V28L6.47064 27.0117C6.20636 26.9971 6 26.792 6 26.5438V14Z" fill="url(#paint4_linear_2439_1966)"/>
<path d="M23 13L26 15V25.8076C26 25.9993 25.9253 26.1717 25.8114 26.2429L23 28V13Z" fill="url(#paint5_linear_2439_1966)"/>
<path d="M14 16C13.7565 16 13.5246 16.0302 13.3108 16.2138C13.0604 16.4289 13 16.806 13 17V21.0004H11L15 26.0004L19 21.0004H17V16.7415C17 16.5475 16.9017 16.3509 16.7295 16.2138C16.5574 16.0766 16.2435 16 16 16H14Z" fill="#102A4C"/>
<path d="M24.9792 23.822C25.009 24.0039 25.2446 23.969 25.4188 23.9083L28 23.0087L26 15L23 13L24.9792 23.822Z" fill="url(#paint6_linear_2439_1966)"/>
<defs>
<linearGradient id="paint0_linear_2439_1966" x1="4.02539" y1="23" x2="10.5508" y2="14.3058" gradientUnits="userSpaceOnUse">
<stop stop-color="#48658B"/>
<stop offset="1" stop-color="#6582AA"/>
</linearGradient>
<linearGradient id="paint1_linear_2439_1966" x1="10" y1="16" x2="22.2472" y2="4.25781" gradientUnits="userSpaceOnUse">
<stop stop-color="#AE46DE"/>
<stop offset="1" stop-color="#CC66FF"/>
</linearGradient>
<linearGradient id="paint2_linear_2439_1966" x1="7.56326" y1="18.959" x2="15.7511" y2="7.16449" gradientUnits="userSpaceOnUse">
<stop stop-color="#05919F"/>
<stop offset="1" stop-color="#49BAC8"/>
</linearGradient>
<linearGradient id="paint3_linear_2439_1966" x1="14" y1="22" x2="26.2472" y2="10.2578" gradientUnits="userSpaceOnUse">
<stop stop-color="#D38F00"/>
<stop offset="1" stop-color="#FFAD00"/>
</linearGradient>
<linearGradient id="paint4_linear_2439_1966" x1="6" y1="27.1211" x2="22.0288" y2="11.9723" gradientUnits="userSpaceOnUse">
<stop stop-color="#6582AA"/>
<stop offset="1" stop-color="#A1C0EB"/>
</linearGradient>
<linearGradient id="paint5_linear_2439_1966" x1="23" y1="28" x2="29.3113" y2="16.5893" gradientUnits="userSpaceOnUse">
<stop stop-color="#48658B"/>
<stop offset="1" stop-color="#6582AA"/>
</linearGradient>
<linearGradient id="paint6_linear_2439_1966" x1="28" y1="27.0122" x2="22.4916" y2="13.4568" gradientUnits="userSpaceOnUse">
<stop stop-color="#6582AA"/>
<stop offset="1" stop-color="#A1C0EB"/>
</linearGradient>
</defs>
</svg>
