<svg width="48" height="48" viewBox="0 0 48 48" fill="none" xmlns="http://www.w3.org/2000/svg">
<g id="Size=48">
<path id="Rectangle 572" d="M5 36L11.728 33.1705C11.9478 33.078 12.1108 32.8729 12.1628 32.6234L15 19L8 20L5 36Z" fill="url(#paint0_linear_2177_446)"/>
<path id="Rectangle 433" d="M15 8C15 6.34315 16.3431 5 18 5H30C31.6569 5 33 6.34315 33 8V20C33 21.6569 31.6569 23 30 23H18C16.3431 23 15 21.6569 15 20V8Z" fill="url(#paint1_linear_2177_446)"/>
<path id="Rectangle 441" d="M7.12719 13.9438C6.91493 12.3496 7.96723 10.8755 9.47756 10.6515L20.4164 9.02873C21.9267 8.80468 23.3231 9.91543 23.5354 11.5097L25.0728 23.0562C25.285 24.6504 24.2327 26.1245 22.7224 26.3485L11.7836 27.9713C10.2732 28.1953 8.87681 27.0846 8.66454 25.4903L7.12719 13.9438Z" fill="url(#paint2_linear_2177_446)"/>
<path id="Rectangle 434" d="M23.0582 16.8193C23.1688 15.1496 24.5408 13.8908 26.1226 14.0075L37.5791 14.8531C39.1609 14.9699 40.3535 16.4181 40.2429 18.0878L39.4418 30.1807C39.3312 31.8504 37.9592 33.1092 36.3774 32.9925L24.9209 32.1469C23.3391 32.0301 22.1465 30.5819 22.2571 28.9122L23.0582 16.8193Z" fill="url(#paint3_linear_2177_446)"/>
<path id="Rectangle 570" d="M8 20L32 19V43L8.66443 42.024C8.29133 42.0007 8 41.6724 8 41.2753V20Z" fill="url(#paint4_linear_2177_446)"/>
<path id="Rectangle 571" d="M32 19L40 22V39.4922C40 39.7989 39.8008 40.0747 39.4971 40.1886L32 43V19Z" fill="url(#paint5_linear_2177_446)"/>
<path id="Vector" d="M19.0928 23C18.7885 23 18.4967 23.1368 18.2815 23.3803C18.0663 23.6237 18 23.972 18 24.3164V31.0111H15L20 39L25 31.0111H22V24.2942C22 23.9499 21.8982 23.6237 21.683 23.3803C21.4678 23.1368 21.1759 23 20.8716 23L19.0928 23Z" fill="#102A4C"/>
<path id="Subtract" d="M40 36L34.613 33.9917C34.4811 33.9425 34.387 33.8318 34.366 33.7008L32 19L40 22V36Z" fill="url(#paint6_linear_2177_446)"/>
<path id="Rectangle 574" d="M35.0979 32.7099C35.126 32.8346 35.2149 32.9374 35.3355 32.9849L43 36L40 22L32 19L35.0979 32.7099Z" fill="url(#paint7_linear_2177_446)"/>
</g>
<defs>
<linearGradient id="paint0_linear_2177_446" x1="5" y1="36" x2="14.5206" y2="19.7483" gradientUnits="userSpaceOnUse">
<stop stop-color="#48658B"/>
<stop offset="1" stop-color="#6582AA"/>
</linearGradient>
<linearGradient id="paint1_linear_2177_446" x1="15" y1="23" x2="33.3708" y2="5.38671" gradientUnits="userSpaceOnUse">
<stop stop-color="#A252D2"/>
<stop offset="1" stop-color="#BE6DEE"/>
</linearGradient>
<linearGradient id="paint2_linear_2177_446" x1="7.09998" y1="28" x2="26.4191" y2="10.4523" gradientUnits="userSpaceOnUse">
<stop stop-color="#229FAD"/>
<stop offset="1" stop-color="#49BAC8"/>
</linearGradient>
<linearGradient id="paint3_linear_2177_446" x1="22.25" y1="33" x2="41.5691" y2="15.4523" gradientUnits="userSpaceOnUse">
<stop stop-color="#C48400"/>
<stop offset="1" stop-color="#FFAD00"/>
</linearGradient>
<linearGradient id="paint4_linear_2177_446" x1="8" y1="41.5938" x2="33.269" y2="20.5217" gradientUnits="userSpaceOnUse">
<stop stop-color="#6582AA"/>
<stop offset="1" stop-color="#A1C0EB"/>
</linearGradient>
<linearGradient id="paint5_linear_2177_446" x1="32" y1="43" x2="39.1274" y2="21.5229" gradientUnits="userSpaceOnUse">
<stop stop-color="#48658B"/>
<stop offset="1" stop-color="#6582AA"/>
</linearGradient>
<linearGradient id="paint6_linear_2177_446" x1="34.4" y1="33.9123" x2="40.2047" y2="22.2709" gradientUnits="userSpaceOnUse">
<stop stop-color="#2E496D"/>
<stop offset="1" stop-color="#48658B"/>
</linearGradient>
<linearGradient id="paint7_linear_2177_446" x1="35.1429" y1="33.0057" x2="39.6296" y2="22.1341" gradientUnits="userSpaceOnUse">
<stop stop-color="#48658B"/>
<stop offset="1" stop-color="#6582AA"/>
<stop offset="1" stop-color="#6582AA"/>
</linearGradient>
</defs>
</svg>
